<svg id="visual" viewBox="0 0 1280 720" width="1280" height="720" xmlns="http://www.w3.org/2000/svg" xmlns:xlink="http://www.w3.org/1999/xlink" version="1.1"><rect width="1280" height="720" fill="#001829"></rect><g><g transform="translate(1159 102)"><path d="M0 -56.1L48.6 -28.1L48.6 28.1L0 56.1L-48.6 28.1L-48.6 -28.1Z" fill="none" stroke="#297EA6" stroke-width="2"></path></g><g transform="translate(877 202)"><path d="M0 -39L33.8 -19.5L33.8 19.5L0 39L-33.8 19.5L-33.8 -19.5Z" fill="none" stroke="#297EA6" stroke-width="2"></path></g><g transform="translate(217 490)"><path d="M0 -26L22.5 -13L22.5 13L0 26L-22.5 13L-22.5 -13Z" stroke="#297EA6" fill="none" stroke-width="2"></path></g><g transform="translate(897 490)"><path d="M0 -37L32 -18.5L32 18.5L0 37L-32 18.5L-32 -18.5Z" stroke="#297EA6" fill="none" stroke-width="2"></path></g><g transform="translate(86 303)"><path d="M0 -29L25.1 -14.5L25.1 14.5L0 29L-25.1 14.5L-25.1 -14.5Z" stroke="#297EA6" fill="none" stroke-width="2"></path></g><g transform="translate(98 96)"><path d="M0 -41L35.5 -20.5L35.5 20.5L0 41L-35.5 20.5L-35.5 -20.5Z" stroke="#297EA6" fill="none" stroke-width="2"></path></g><g transform="translate(132 589)"><path d="M0 -49L42.4 -24.5L42.4 24.5L0 49L-42.4 24.5L-42.4 -24.5Z" stroke="#297EA6" fill="none" stroke-width="2"></path></g><g transform="translate(1099 338)"><path d="M0 -53L45.9 -26.5L45.9 26.5L0 53L-45.9 26.5L-45.9 -26.5Z" stroke="#297EA6" fill="none" stroke-width="2"></path></g><g transform="translate(395 545)"><path d="M0 -46L39.8 -23L39.8 23L0 46L-39.8 23L-39.8 -23Z" stroke="#297EA6" fill="none" stroke-width="2"></path></g><g transform="translate(276 305)"><path d="M0 -29L25.1 -14.5L25.1 14.5L0 29L-25.1 14.5L-25.1 -14.5Z" stroke="#297EA6" fill="none" stroke-width="2"></path></g><g transform="translate(1143 566)"><path d="M0 -33L28.6 -16.5L28.6 16.5L0 33L-28.6 16.5L-28.6 -16.5Z" stroke="#297EA6" fill="none" stroke-width="2"></path></g><g transform="translate(525 241)"><path d="M0 -52L45 -26L45 26L0 52L-45 26L-45 -26Z" stroke="#297EA6" fill="none" stroke-width="2"></path></g><g transform="translate(553 447)"><path d="M0 -29L25.1 -14.5L25.1 14.5L0 29L-25.1 14.5L-25.1 -14.5Z" stroke="#297EA6" fill="none" stroke-width="2"></path></g><g transform="translate(324 433)"><path d="M0 -47L40.7 -23.5L40.7 23.5L0 47L-40.7 23.5L-40.7 -23.5Z" stroke="#297EA6" fill="none" stroke-width="2"></path></g></g></svg>